<svg xmlns="http://www.w3.org/2000/svg" viewBox="0 0 960 540" role="img" aria-labelledby="title desc">
  <title id="title">Cell health visual</title>
  <desc id="desc">Abstract cells, viability markers, and assay plate for cell health workflows.</desc>
  <defs>
    <linearGradient id="bg" x1="0" y1="0" x2="1" y2="1">
      <stop offset="0" stop-color="#f6fbff"/>
      <stop offset=".5" stop-color="#eef7ed"/>
      <stop offset="1" stop-color="#fff3f4"/>
    </linearGradient>
  </defs>
  <rect width="960" height="540" fill="url(#bg)"/>
  <path d="M0 386c104 52 209 14 316 34 132 24 202 92 356 54 116-29 191-99 288-50v116H0z" fill="#dff1ef"/>
  <g transform="translate(126 104)">
    <circle cx="178" cy="158" r="98" fill="#ffffff" stroke="#75c6b3" stroke-width="7"/>
    <circle cx="178" cy="158" r="46" fill="#a4dfca"/>
    <circle cx="146" cy="130" r="13" fill="#1f9fd0"/>
    <circle cx="210" cy="190" r="15" fill="#f0b64c"/>
    <circle cx="236" cy="130" r="9" fill="#e85d75"/>
    <path d="M92 226c42 68 132 88 200 43" fill="none" stroke="#2e9fc8" stroke-width="7" stroke-linecap="round"/>
    <circle cx="68" cy="292" r="28" fill="#fff" stroke="#75c6b3" stroke-width="6"/>
    <circle cx="314" cy="54" r="34" fill="#fff" stroke="#75c6b3" stroke-width="6"/>
  </g>
  <g transform="translate(522 118)">
    <rect x="0" y="88" width="310" height="210" rx="28" fill="#ffffff" stroke="#79bad1" stroke-width="6"/>
    <rect x="44" y="50" width="222" height="70" rx="18" fill="#2e9fc8"/>
    <g fill="#dff6ff">
      <circle cx="70" cy="144" r="18"/><circle cx="130" cy="144" r="18"/><circle cx="190" cy="144" r="18"/><circle cx="250" cy="144" r="18"/>
      <circle cx="70" cy="202" r="18"/><circle cx="130" cy="202" r="18"/><circle cx="190" cy="202" r="18"/><circle cx="250" cy="202" r="18"/>
      <circle cx="70" cy="260" r="18"/><circle cx="130" cy="260" r="18"/><circle cx="190" cy="260" r="18"/><circle cx="250" cy="260" r="18"/>
    </g>
    <path d="M48 40l74-28 74 28 74-28" fill="none" stroke="#f0b64c" stroke-width="9" stroke-linecap="round" stroke-linejoin="round"/>
  </g>
  <g opacity=".55" stroke="#7fc8d1" stroke-width="3" fill="none">
    <path d="M92 84h164M704 76h124M92 454h246"/>
    <circle cx="822" cy="398" r="42"/>
  </g>
</svg>
