<svg xmlns="http://www.w3.org/2000/svg" viewBox="0 0 960 540" role="img" aria-labelledby="title desc">
  <title id="title">Application workflow visual</title>
  <desc id="desc">Abstract multi-step assay workflow with connected panels and sample path.</desc>
  <defs>
    <linearGradient id="bg" x1="0" y1="0" x2="1" y2="1">
      <stop offset="0" stop-color="#f4fbff"/>
      <stop offset=".5" stop-color="#eef8f5"/>
      <stop offset="1" stop-color="#fff7e8"/>
    </linearGradient>
  </defs>
  <rect width="960" height="540" fill="url(#bg)"/>
  <path d="M0 398c95-38 184-10 298-7 134 3 235-43 360-31 117 11 199 60 302 23v157H0z" fill="#dcedf8"/>
  <g transform="translate(104 122)" fill="#fff" stroke="#82bfd7" stroke-width="6">
    <rect x="0" y="42" width="188" height="150" rx="24"/>
    <rect x="286" y="0" width="188" height="150" rx="24"/>
    <rect x="572" y="62" width="188" height="150" rx="24"/>
    <rect x="286" y="214" width="188" height="150" rx="24"/>
  </g>
  <g transform="translate(104 122)" fill="none" stroke-linecap="round" stroke-linejoin="round">
    <path d="M188 112h82M474 76h82M662 212v46H492M380 150v48" stroke="#0b4a72" stroke-width="10"/>
    <path d="M252 90l28 22-28 22M538 54l28 22-28 22M512 236l-26 22 26 22M358 180l22 28 22-28" stroke="#0b4a72" stroke-width="10"/>
  </g>
  <g transform="translate(104 122)">
    <path d="M52 156v-54l42-24 42 24v54l-42 24z" fill="#e7f6fb" stroke="#2e9fc8" stroke-width="6"/>
    <circle cx="94" cy="128" r="19" fill="#75c6a3"/>
    <path d="M344 104l36-60 36 60z" fill="#fff0ca" stroke="#f0b64c" stroke-width="6"/>
    <circle cx="380" cy="92" r="18" fill="#f0b64c"/>
    <path d="M626 132h82M626 166h96M626 98h64" stroke="#2e9fc8" stroke-width="12" stroke-linecap="round"/>
    <circle cx="348" cy="286" r="26" fill="#e85d75"/>
    <circle cx="414" cy="286" r="26" fill="#2e9fc8"/>
    <circle cx="380" cy="322" r="26" fill="#75c6a3"/>
  </g>
  <g opacity=".45" stroke="#81c7d4" stroke-width="3" fill="none">
    <path d="M86 80h154M720 76h142M112 464h230"/>
  </g>
</svg>
